<svg width="36" height="34" viewBox="0 0 36 34" fill="none" xmlns="http://www.w3.org/2000/svg">
<path d="M25.8502 17.0795C27.8685 17.0795 29.5047 15.4433 29.5047 13.4251C29.5047 11.4068 27.8685 9.77063 25.8502 9.77063C23.8319 9.77063 22.1958 11.4068 22.1958 13.4251C22.1958 15.4433 23.8319 17.0795 25.8502 17.0795Z" stroke="white" stroke-width="2" stroke-linecap="round" stroke-linejoin="round"/>
<path d="M14.1559 8.30886C16.1742 8.30886 17.8103 6.67272 17.8103 4.65443C17.8103 2.63614 16.1742 1 14.1559 1C12.1376 1 10.5015 2.63614 10.5015 4.65443C10.5015 6.67272 12.1376 8.30886 14.1559 8.30886Z" stroke="white" stroke-width="2" stroke-linecap="round" stroke-linejoin="round"/>
<path d="M21.4648 25.1192C21.4648 25.1192 27.6335 22.5611 29.8115 22.1957C31.6241 21.8887 32.7935 22.6927 33.4952 23.292C34.343 24.0083 34.0799 25.397 33.0274 25.777L15.7785 31.9895C14.5068 32.4427 13.1181 32.3842 11.9048 31.8141L1.84783 27.1072C1.33621 26.8733 1 26.3471 1 25.777V17.8688C1 17.0064 1.7455 16.334 2.60795 16.4071C4.27437 16.5678 6.55473 17.1379 9.77063 19.2721H16.1586C19.6084 19.2721 21.4648 21.8887 21.4648 25.1192ZM21.4648 25.1192H9.77063" stroke="white" stroke-width="2" stroke-linecap="round" stroke-linejoin="round"/>
</svg>
