<svg width="28" height="29" viewBox="0 0 28 29" fill="none" xmlns="http://www.w3.org/2000/svg">
<path d="M18.6937 7.63704C18.6937 10.3955 16.3377 12.5976 13.5319 12.3489C11.0457 12.1358 9.22253 9.88644 9.22253 7.38843V5.97959C9.22253 3.48158 11.0457 1.23218 13.5319 1.01908C16.3377 0.770464 18.6937 2.98434 18.6937 5.73098V7.6252V7.63704Z" stroke="white" stroke-width="2" stroke-linecap="round" stroke-linejoin="round"/>
<path d="M16.4442 16.7412L14.8578 18.6354C14.3842 19.2037 13.52 19.2037 13.0464 18.6354L11.46 16.7412C10.797 15.948 9.69601 15.652 8.7489 16.0664C4.53424 17.9014 1.47979 21.9148 1.00624 26.6859C0.935203 27.3844 1.47979 28 2.19013 28H25.7259C26.4363 28 26.9808 27.3844 26.9098 26.6859C26.4244 21.9148 23.37 17.9014 19.1553 16.0664C18.2082 15.652 17.1072 15.9598 16.4442 16.7412V16.7412Z" stroke="white" stroke-width="2" stroke-linecap="round" stroke-linejoin="round"/>
</svg>
