<svg width="30" height="30" viewBox="0 0 30 30" fill="none" xmlns="http://www.w3.org/2000/svg">
<path d="M5.86946 18.0435H7.08685V10.7391H5.86946C3.84859 10.7391 2.21729 12.3704 2.21729 14.3913C2.21729 16.4122 3.84859 18.0435 5.86946 18.0435Z" stroke="white" stroke-width="2" stroke-linecap="round" stroke-linejoin="round"/>
<path d="M25.3478 18.0435H24.1304V10.7391H25.3478C27.3686 10.7391 28.9999 12.3704 28.9999 14.3913C28.9999 16.4122 27.3686 18.0435 25.3478 18.0435Z" stroke="white" stroke-width="2" stroke-linecap="round" stroke-linejoin="round"/>
<path d="M7.08691 10.7391V8.30435C7.08691 4.27478 11.5791 1 15.6087 1C19.6382 1 24.1304 4.27478 24.1304 8.30435V10.7391" stroke="white" stroke-width="2" stroke-linecap="round" stroke-linejoin="round"/>
<path d="M24.1308 18.0435C24.1308 20.7217 21.696 22.9131 19.2612 22.9131" stroke="white" stroke-width="2" stroke-linecap="round" stroke-linejoin="round"/>
<path d="M25.7012 23.4974C26.1394 23.8139 26.5412 24.1548 26.9064 24.52C28.2333 25.8226 29.0003 27.3565 29.0003 29" stroke="white" stroke-width="2" stroke-linecap="round" stroke-linejoin="round"/>
<path d="M1 29C1 25.4087 4.64 22.3409 9.78957 21.0992" stroke="white" stroke-width="2" stroke-linecap="round" stroke-linejoin="round"/>
<path d="M18.0433 24.1304H15.6085C14.9389 24.1304 14.3911 23.5826 14.3911 22.913C14.3911 22.2435 14.9389 21.6956 15.6085 21.6956H18.0433C18.7129 21.6956 19.2607 22.2435 19.2607 22.913C19.2607 23.5826 18.7129 24.1304 18.0433 24.1304Z" stroke="white" stroke-width="2" stroke-linecap="round" stroke-linejoin="round"/>
</svg>
