<svg width="306" height="68" viewBox="0 0 306 68" fill="none" xmlns="http://www.w3.org/2000/svg">
<path d="M14.24 27.38C16.5 27.38 18.44 27.85 20.05 28.78C21.66 29.71 22.91 31 23.79 32.63C24.67 34.26 25.11 36.14 25.11 38.25C25.11 38.72 25.09 39.16 25.06 39.57C25.02 39.98 24.95 40.37 24.84 40.73H8.63999C8.67999 44.43 9.36999 47.08 10.71 48.7C12.06 50.31 14.02 51.12 16.6 51.12C18.39 51.12 19.85 50.82 20.96 50.23C22.07 49.64 23.09 48.8 24.03 47.73L24.89 48.54C23.81 50.51 22.35 52.05 20.5 53.14C18.65 54.23 16.45 54.78 13.91 54.78C11.37 54.78 9.11999 54.24 7.17999 53.16C5.23999 52.08 3.72999 50.53 2.62999 48.5C1.52999 46.47 0.98999 44.04 0.98999 41.21C0.98999 38.38 1.62999 35.77 2.89999 33.73C4.16999 31.69 5.81999 30.12 7.84999 29.02C9.87999 27.93 12 27.38 14.23 27.38H14.24ZM13.97 28.94C12.93 28.94 12.02 29.24 11.25 29.83C10.48 30.42 9.86999 31.46 9.41999 32.95C8.96999 34.44 8.70999 36.53 8.63999 39.22H18.27C18.66 35.6 18.52 32.98 17.84 31.36C17.16 29.75 15.87 28.94 13.96 28.94H13.97Z" fill="white"/>
<path d="M35.39 54.77C33.34 54.77 31.61 54.19 30.2 53.02C28.78 51.85 28.07 50.18 28.07 47.99C28.07 46.27 28.9 44.68 30.57 43.23C32.24 41.78 34.87 40.71 38.46 40.03C39.07 39.89 39.78 39.75 40.59 39.63C41.4 39.51 42.2 39.37 42.99 39.23V35.41C42.99 32.97 42.68 31.28 42.07 30.35C41.46 29.42 40.49 28.95 39.16 28.95H39C38.17 28.95 37.52 29.21 37.04 29.73C36.56 30.25 36.24 31.1 36.1 32.29L35.94 32.99C35.83 34.43 35.46 35.47 34.81 36.14C34.16 36.8 33.36 37.14 32.39 37.14C31.49 37.14 30.75 36.86 30.16 36.31C29.57 35.75 29.27 35.03 29.27 34.13C29.27 32.66 29.77 31.42 30.78 30.42C31.78 29.42 33.12 28.66 34.79 28.16C36.46 27.66 38.26 27.41 40.2 27.41C43.39 27.41 45.83 28.18 47.52 29.72C49.21 31.26 50.05 33.77 50.05 37.26V49.26C50.05 50.8 50.78 51.57 52.26 51.57H53.5L54.04 52.16C53.39 52.99 52.68 53.62 51.89 54.07C51.1 54.52 50.02 54.74 48.66 54.74C47.12 54.74 45.89 54.37 44.97 53.64C44.05 52.91 43.45 51.93 43.17 50.71C42.02 51.93 40.89 52.92 39.78 53.67C38.67 54.42 37.21 54.8 35.42 54.8L35.39 54.77ZM38.51 51.33C39.23 51.33 39.91 51.17 40.56 50.85C41.21 50.53 42.01 49.99 42.98 49.23V40.62C42.05 40.76 41.1 40.94 40.13 41.16C38.59 41.52 37.34 42.18 36.39 43.15C35.44 44.12 34.96 45.43 34.96 47.08C34.96 48.52 35.29 49.58 35.96 50.28C36.62 50.98 37.48 51.33 38.52 51.33H38.51Z" fill="white"/>
<path d="M64.56 54.77C62.84 54.77 61.29 54.58 59.9 54.2C58.52 53.82 57.2 53.29 55.94 52.61V46.26H57.39L59 49.33C59.68 50.66 60.46 51.64 61.34 52.29C62.22 52.94 63.34 53.26 64.7 53.26C66.39 53.26 67.73 52.89 68.74 52.16C69.74 51.42 70.25 50.43 70.25 49.17C70.25 48.02 69.87 47.09 69.12 46.37C68.37 45.65 67.02 44.99 65.08 44.38L62.71 43.63C60.59 42.98 58.92 42.01 57.68 40.7C56.44 39.39 55.82 37.75 55.82 35.78C55.82 34.24 56.23 32.83 57.06 31.55C57.88 30.28 59.09 29.26 60.67 28.51C62.25 27.76 64.17 27.38 66.43 27.38C67.9 27.38 69.26 27.55 70.49 27.89C71.73 28.23 72.94 28.71 74.12 29.32L73.8 35.08H72.4L70.73 32.01C70.16 30.86 69.57 30.06 68.98 29.61C68.39 29.16 67.48 28.94 66.26 28.94C64.97 28.94 63.83 29.27 62.84 29.94C61.85 30.6 61.36 31.53 61.36 32.71C61.36 33.82 61.77 34.73 62.6 35.43C63.43 36.13 64.75 36.79 66.58 37.39L68.89 38.09C71.51 38.92 73.37 40.01 74.49 41.37C75.6 42.73 76.16 44.37 76.16 46.27C76.16 48.82 75.15 50.87 73.12 52.43C71.09 53.99 68.23 54.77 64.54 54.77H64.56Z" fill="white"/>
<path d="M83.13 66.99C81.69 66.99 80.56 66.65 79.74 65.97C78.91 65.29 78.5 64.39 78.5 63.28C78.5 62.28 78.85 61.48 79.55 60.88C80.25 60.29 81.03 59.99 81.89 59.99C82.75 59.99 83.52 60.15 84.1 60.47C84.67 60.79 85.18 61.26 85.61 61.87L85.93 62.3C86.75 63.3 87.53 63.29 88.24 62.25C88.71 61.64 89.16 60.89 89.61 59.99C90.06 59.09 90.55 57.91 91.09 56.44L80.86 32.01C80.61 31.33 80.32 30.8 80 30.42C79.68 30.04 79.19 29.73 78.55 29.48L77.64 29.16V28.19H90.93V29.16L89.8 29.48C89.01 29.73 88.59 30.12 88.54 30.64C88.49 31.16 88.6 31.83 88.89 32.66L94.38 46.98L99.65 32.56C99.94 31.77 100.04 31.11 99.97 30.57C99.9 30.03 99.45 29.67 98.62 29.49L97.44 29.17V28.2H105.46V29.17L104.28 29.55C103.49 29.77 102.93 30.08 102.58 30.49C102.24 30.9 101.92 31.5 101.64 32.29L93.03 55.43C91.59 59.38 90.13 62.29 88.64 64.18C87.15 66.06 85.31 67.01 83.12 67.01L83.13 66.99Z" fill="white"/>
<path d="M125.76 54.93C122.28 54.93 119.14 54.21 116.34 52.78C113.54 51.35 111.33 49.23 109.69 46.43C108.06 43.63 107.24 40.22 107.24 36.2C107.24 33.19 107.73 30.51 108.72 28.18C109.71 25.85 111.07 23.88 112.81 22.29C114.55 20.69 116.55 19.49 118.81 18.68C121.07 17.87 123.47 17.47 126.02 17.47C127.99 17.47 129.84 17.69 131.56 18.14C133.28 18.59 134.93 19.24 136.51 20.1L136.73 27.15H135.28L133.02 22.9C132.66 22.18 132.27 21.54 131.86 20.96C131.45 20.39 130.92 19.97 130.27 19.72C129.37 19.29 128.31 19.07 127.09 19.07C124.97 19.07 123.04 19.61 121.3 20.69C119.56 21.77 118.17 23.55 117.13 26.05C116.09 28.54 115.57 31.94 115.57 36.25C115.57 40.56 116.06 43.91 117.05 46.42C118.04 48.93 119.37 50.72 121.06 51.78C122.75 52.84 124.65 53.37 126.77 53.37C127.74 53.37 128.53 53.3 129.14 53.15C129.75 53.01 130.36 52.81 130.97 52.56C131.69 52.27 132.24 51.85 132.64 51.3C133.03 50.74 133.38 50.11 133.66 49.39L135.71 44.49H137.16L136.94 52.24C135.4 53.1 133.69 53.77 131.83 54.23C129.96 54.7 127.94 54.93 125.75 54.93H125.76Z" fill="white"/>
<path d="M139.81 54.02V52.94L140.51 52.73C141.8 52.34 142.45 51.44 142.45 50.04V22.32C142.45 21.57 142.32 21 142.07 20.62C141.82 20.24 141.33 19.97 140.62 19.79L139.81 19.57V18.55L148.91 16.24L149.77 16.72L149.55 24.31V31.2C150.81 30.16 152.18 29.26 153.67 28.51C155.16 27.76 156.76 27.38 158.49 27.38C160.86 27.38 162.72 28.04 164.06 29.37C165.41 30.7 166.08 32.74 166.08 35.51V50.1C166.08 50.82 166.22 51.39 166.51 51.82C166.8 52.25 167.3 52.57 168.02 52.79L168.5 52.95V54.03H156.23V52.95L156.88 52.74C158.17 52.38 158.82 51.48 158.82 50.05V34.5C158.82 33.03 158.57 32.01 158.07 31.43C157.57 30.86 156.69 30.57 155.43 30.57C154.57 30.57 153.66 30.73 152.71 31.05C151.76 31.37 150.76 31.91 149.72 32.66V50.15C149.72 50.87 149.86 51.44 150.15 51.87C150.44 52.3 150.92 52.61 151.6 52.79L152.08 52.95V54.03H139.81V54.02Z" fill="white"/>
<path d="M178.18 54.77C176.14 54.77 174.4 54.19 172.99 53.02C171.57 51.85 170.86 50.18 170.86 47.99C170.86 46.27 171.69 44.68 173.36 43.23C175.03 41.78 177.66 40.71 181.24 40.03C181.85 39.89 182.56 39.75 183.37 39.63C184.18 39.51 184.98 39.37 185.77 39.23V35.41C185.77 32.97 185.46 31.28 184.85 30.35C184.24 29.42 183.27 28.95 181.94 28.95H181.78C180.95 28.95 180.3 29.21 179.82 29.73C179.34 30.25 179.02 31.1 178.88 32.29L178.72 32.99C178.61 34.43 178.24 35.47 177.59 36.14C176.94 36.8 176.14 37.14 175.17 37.14C174.27 37.14 173.53 36.86 172.94 36.31C172.35 35.75 172.05 35.03 172.05 34.13C172.05 32.66 172.55 31.42 173.56 30.42C174.57 29.42 175.9 28.66 177.57 28.16C179.24 27.66 181.04 27.41 182.98 27.41C186.17 27.41 188.61 28.18 190.3 29.72C191.99 31.26 192.83 33.77 192.83 37.26V49.26C192.83 50.8 193.56 51.57 195.04 51.57H196.28L196.82 52.16C196.17 52.99 195.46 53.62 194.67 54.07C193.88 54.52 192.8 54.74 191.44 54.74C189.9 54.74 188.67 54.37 187.75 53.64C186.83 52.91 186.23 51.93 185.95 50.71C184.8 51.93 183.67 52.92 182.56 53.67C181.45 54.42 179.99 54.8 178.2 54.8L178.18 54.77ZM181.3 51.33C182.02 51.33 182.7 51.17 183.35 50.85C184 50.53 184.8 49.99 185.77 49.23V40.62C184.84 40.76 183.89 40.94 182.92 41.16C181.38 41.52 180.13 42.18 179.18 43.15C178.23 44.12 177.75 45.43 177.75 47.08C177.75 48.52 178.08 49.58 178.75 50.28C179.41 50.98 180.26 51.33 181.31 51.33H181.3Z" fill="white"/>
<path d="M197.88 54.02V53L198.74 52.79C199.92 52.43 200.52 51.55 200.52 50.15V34.27C200.48 33.52 200.36 32.93 200.14 32.52C199.93 32.11 199.46 31.83 198.74 31.69L197.88 31.48V30.51L206.6 27.39L207.25 27.98L207.63 31.32C208.92 30.17 210.37 29.23 211.96 28.49C213.56 27.75 215.13 27.39 216.67 27.39C219.04 27.39 220.86 28.04 222.13 29.33C223.4 30.62 224.04 32.6 224.04 35.25V50.21C224.04 51.61 224.69 52.49 225.98 52.85L226.57 53.01V54.03H214.19V53.01L215 52.8C216.18 52.41 216.78 51.53 216.78 50.16V34.17C216.78 32.92 216.51 32 215.97 31.42C215.43 30.85 214.53 30.56 213.28 30.56C211.52 30.56 209.69 31.33 207.79 32.87V50.2C207.79 51.6 208.42 52.48 209.67 52.84L210.21 53V54.02H197.88Z" fill="white"/>
<path d="M240.4 44.82C238.03 44.82 236 44.43 234.32 43.64V45.58C234.32 46.66 234.86 47.3 235.94 47.52L245.52 49.3C247.35 49.66 248.96 50.1 250.36 50.62C251.76 51.14 252.85 51.88 253.64 52.83C254.43 53.78 254.82 55.06 254.82 56.68C254.82 58.4 254.26 60.01 253.12 61.5C251.99 62.99 250.32 64.19 248.12 65.11C245.91 66.03 243.16 66.48 239.86 66.48C237.03 66.48 234.77 66.18 233.11 65.59C231.44 65 230.25 64.24 229.53 63.3C228.81 62.37 228.45 61.36 228.45 60.29C228.45 59 228.89 57.71 229.77 56.41C230.65 55.12 231.79 54.04 233.19 53.18C231 52.36 229.91 51.05 229.91 49.25C229.91 48.57 230.07 47.94 230.39 47.37C230.71 46.8 231.11 46.22 231.57 45.65L233.51 43.23C230.93 41.72 229.63 39.37 229.63 36.18C229.63 33.56 230.55 31.44 232.4 29.83C234.25 28.22 236.91 27.41 240.39 27.41C243.87 27.41 246.56 28.22 248.46 29.83C249.61 29.65 250.68 29.36 251.69 28.97C252.69 28.58 253.63 28.04 254.49 27.36L255.24 27.9V30.91H249.43C250.58 32.35 251.15 34.1 251.15 36.18C251.15 38.73 250.23 40.81 248.38 42.42C246.53 44.03 243.87 44.84 240.39 44.84L240.4 44.82ZM232.65 58.71C232.65 60.68 233.28 62.16 234.53 63.15C235.78 64.14 237.78 64.63 240.5 64.63C243.51 64.63 245.75 64.14 247.2 63.15C248.65 62.16 249.38 60.86 249.38 59.25C249.38 58.25 249.01 57.46 248.28 56.88C247.55 56.3 246.32 55.86 244.59 55.53L234.96 53.65C234.82 53.61 234.67 53.58 234.53 53.54C233.99 54.26 233.54 55.08 233.18 56.02C232.82 56.95 232.64 57.85 232.64 58.71H232.65ZM240.29 43.37C241.8 43.37 242.9 42.79 243.6 41.62C244.3 40.45 244.65 38.58 244.65 36C244.65 33.42 244.31 31.62 243.63 30.51C242.95 29.4 241.89 28.84 240.45 28.84C239.01 28.84 237.95 29.41 237.25 30.54C236.55 31.67 236.2 33.53 236.2 36.11C236.2 38.69 236.52 40.55 237.17 41.68C237.82 42.81 238.86 43.38 240.29 43.38V43.37Z" fill="white"/>
<path d="M269.79 27.38C272.05 27.38 273.99 27.85 275.6 28.78C277.22 29.71 278.46 31 279.34 32.63C280.22 34.26 280.66 36.14 280.66 38.25C280.66 38.72 280.64 39.16 280.61 39.57C280.57 39.98 280.5 40.37 280.39 40.73H264.19C264.23 44.43 264.92 47.08 266.26 48.7C267.6 50.32 269.57 51.12 272.15 51.12C273.94 51.12 275.4 50.82 276.51 50.23C277.62 49.64 278.64 48.8 279.58 47.73L280.44 48.54C279.36 50.51 277.9 52.05 276.05 53.14C274.2 54.23 272 54.78 269.46 54.78C266.92 54.78 264.67 54.24 262.73 53.16C260.79 52.08 259.28 50.53 258.18 48.5C257.09 46.47 256.54 44.04 256.54 41.21C256.54 38.38 257.18 35.77 258.45 33.73C259.72 31.69 261.37 30.12 263.4 29.02C265.43 27.93 267.55 27.38 269.78 27.38H269.79ZM269.52 28.94C268.48 28.94 267.57 29.24 266.8 29.83C266.03 30.42 265.42 31.46 264.97 32.95C264.52 34.44 264.26 36.53 264.19 39.22H273.82C274.21 35.6 274.07 32.98 273.39 31.36C272.71 29.75 271.42 28.94 269.51 28.94H269.52Z" fill="white"/>
<path d="M283.4 54.02V53L284.21 52.73C284.93 52.55 285.42 52.24 285.69 51.81C285.96 51.38 286.09 50.81 286.09 50.09V34.32C286.05 33.53 285.91 32.93 285.66 32.52C285.41 32.11 284.92 31.83 284.21 31.69L283.4 31.48V30.51L292.17 27.39L292.82 27.98L293.3 32.72V33.1C293.84 32.1 294.52 31.16 295.35 30.3C296.17 29.44 297.07 28.74 298.04 28.2C299.01 27.66 299.98 27.39 300.95 27.39C302.31 27.39 303.34 27.75 304.02 28.47C304.7 29.19 305.04 30.1 305.04 31.22C305.04 32.44 304.7 33.36 304.02 33.99C303.34 34.62 302.51 34.93 301.54 34.93C300.1 34.93 298.87 34.28 297.83 32.99L297.72 32.88C297.36 32.45 296.96 32.21 296.51 32.15C296.06 32.1 295.62 32.32 295.19 32.82C294.83 33.18 294.5 33.6 294.19 34.09C293.88 34.57 293.61 35.14 293.36 35.79V49.89C293.36 50.57 293.5 51.14 293.79 51.59C294.08 52.04 294.56 52.35 295.24 52.53L296.86 53.01V54.03H283.4V54.02Z" fill="white"/>
<path d="M131.02 4.69C131.02 8.33 128.07 13.68 124.42 13.68C120.77 13.68 117.82 8.34 117.82 4.69C117.82 1.04 120.77 0 124.42 0C128.07 0 131.02 1.05 131.02 4.69Z" fill="white"/>
<path d="M114.47 8.95001C115.71 10.97 116.23 14.73 114.64 15.7C113.05 16.67 109.95 14.49 108.72 12.47C107.49 10.45 108.42 9.08001 110 8.11001C111.58 7.14001 113.23 6.94001 114.47 8.96001V8.95001Z" fill="white"/>
<path d="M134.38 8.95001C133.14 10.97 132.62 14.73 134.21 15.7C135.8 16.67 138.9 14.49 140.13 12.47C141.36 10.45 140.43 9.08001 138.85 8.11001C137.27 7.14001 135.62 6.94001 134.38 8.96001V8.95001Z" fill="white"/>
</svg>
